Patient4_TMGait_0pt6_01_left_06_GRF.mot
version=1
nRows=39
nColumns=19
inDegrees=no
endheader
time	F1x	F1y	F1z	M1x	M1y	M1z	F2x	F2y	F2z	M2x	M2y	M2z	EC1x	EC1y	EC1z	EC2x	EC2y	EC2z
7.29	8.0888	-4.7233	-6.2921	2.422	7.2576	1.5898	-33.9678	759.1021	-50.4141	297.5707	58.8108	677.4698	-0.0592	0.0182	-0.0073	-0.0462	0.0165	0.9585
7.302	5.2046	-2.419	-4.2303	1.3702	4.8512	1.718	-30.3259	738.7986	-49.531	291.6255	55.8921	657.1303	-0.0592	0.0182	-0.0073	-0.0462	0.0165	0.9585
7.314	2.7937	-0.45394	-2.4648	0.45969	2.7778	1.8646	-26.4072	720.9801	-48.545	286.3894	52.7913	638.2751	-0.0592	0.0182	-0.0073	-0.0462	0.0165	0.9585
7.326	0.97926	1.0631	-1.103	-0.25162	1.1745	2.0164	-22.452	707.5667	-47.6016	282.5335	49.7655	622.6568	-0.0592	0.0182	-0.0073	-0.0462	0.0165	0.9585
7.338	-0.28159	2.1451	-0.15547	-0.76276	0.052248	2.1797	-18.6312	699.5803	-46.8121	280.4738	46.9922	611.2705	-0.0592	0.0182	-0.0073	-0.0462	0.0165	0.9585
7.35	-1.0635	2.8464	0.44588	-1.0961	-0.66013	2.3311	-15.0718	697.2574	-46.2705	280.363	44.5993	604.4195	-0.0592	0.0182	-0.0073	-0.0462	0.0165	0.9585
7.362	-1.5076	3.2706	0.75971	-1.2927	-1.0438	2.4898	-11.828	700.131	-46.0144	282.0969	42.6339	601.7703	-0.0592	0.0182	-0.0073	-0.0462	0.0165	0.9585
7.374	-1.7247	3.4804	0.87919	-1.3825	-1.2074	2.6159	-8.9069	707.2284	-46.0584	285.3645	41.0996	602.5537	-0.0592	0.0182	-0.0073	-0.0462	0.0165	0.9585
7.386	-1.8304	3.526	0.85543	-1.389	-1.2261	2.6947	-6.2629	717.2735	-46.3474	289.7183	39.9205	605.7209	-0.0592	0.0182	-0.0073	-0.0462	0.0165	0.9585
7.398	-1.8884	3.4015	0.76174	-1.3193	-1.1855	2.6486	-3.8831	728.8168	-46.8093	294.6239	39.0135	610.0964	-0.0592	0.0182	-0.0073	-0.0462	0.0165	0.9585
7.41	-1.9697	3.0628	0.62588	-1.1673	-1.1276	2.4084	-1.7342	740.3864	-47.3515	299.5193	38.2731	614.5023	-0.0592	0.0182	-0.0073	-0.0462	0.0165	0.9585
7.422	-2.0717	2.4327	0.49382	-0.91103	-1.0897	1.871	0.17173	750.6498	-47.8986	303.8802	37.6291	617.9052	-0.0592	0.0182	-0.0073	-0.0462	0.0165	0.9585
7.434	-2.199	1.4455	0.37235	-0.52466	-1.0697	0.96727	1.825	758.5416	-48.362	307.2858	37.0074	619.4719	-0.0592	0.0182	-0.0073	-0.0462	0.0165	0.9585
7.446	-2.2834	0.030921	0.27807	0.020051	-1.0535	-0.38052	3.2388	763.4635	-48.6674	309.4914	36.3491	618.7766	-0.0592	0.0182	-0.0073	-0.0462	0.0165	0.9585
7.458	-2.232	-1.8044	0.20405	0.72365	-0.99584	-2.1574	4.4446	765.1876	-48.7564	310.4028	35.5989	615.6648	-0.0592	0.0182	-0.0073	-0.0462	0.0165	0.9585
7.47	-1.8998	-3.9681	0.15584	1.5511	-0.84725	-4.2783	5.4598	763.8141	-48.6487	310.0487	34.7704	610.2514	-0.0592	0.0182	-0.0073	-0.0462	0.0165	0.9585
7.482	-1.1146	-6.2012	0.13708	2.4034	-0.54533	-6.4835	6.3674	759.7306	-48.4142	308.5724	33.894	602.8588	-0.0592	0.0182	-0.0073	-0.0462	0.0165	0.9585
7.494	0.3436	-7.9975	0.15598	3.0878	-0.018131	-8.2831	7.2438	753.5719	-48.1685	306.2156	33.029	594.0008	-0.0592	0.0182	-0.0073	-0.0462	0.0165	0.9585
7.506	2.6744	-8.5339	0.23221	3.2901	0.79275	-8.8761	8.1934	746.1051	-48.0333	303.269	32.2292	584.2893	-0.0592	0.0182	-0.0073	-0.0462	0.0165	0.9585
7.518	6.0314	-6.6021	0.38336	2.5462	1.9305	-7.0962	9.3147	738.0183	-48.0972	299.9915	31.5248	574.2797	-0.0592	0.0182	-0.0073	-0.0462	0.0165	0.9585
7.53	10.4241	-0.59121	0.65026	0.23848	3.3616	-1.379	10.6939	729.7474	-48.3611	296.5435	30.8867	564.3386	-0.0592	0.0182	-0.0073	-0.0462	0.0165	0.9585
7.542	15.5831	11.408	1.0555	-4.3695	4.956	10.1449	12.3932	721.346	-48.7589	292.9333	30.2469	554.5371	-0.0592	0.0182	-0.0073	-0.0462	0.0165	0.9585
7.554	20.8202	31.3871	1.6277	-12.047	6.4142	29.431	14.4227	712.3804	-49.165	288.9786	29.5091	544.5892	-0.0592	0.0182	-0.0073	-0.0462	0.0165	0.9585
7.566	24.8346	60.9781	2.3476	-23.4268	7.2525	58.0977	16.7431	701.9183	-49.4151	284.304	28.5699	533.8391	-0.0592	0.0182	-0.0073	-0.0462	0.0165	0.9585
7.578	25.7362	100.8784	3.205	-38.79	6.7612	96.865	19.2372	688.6698	-49.3314	278.3967	27.3479	521.3674	-0.0592	0.0182	-0.0073	-0.0462	0.0165	0.9585
7.59	21.8164	150.7597	4.1672	-58.0242	4.3301	145.4846	21.7784	671.2042	-48.7116	270.7071	25.7547	506.1321	-0.0592	0.0182	-0.0073	-0.0462	0.0165	0.9585
7.602	13.0413	209.5627	5.2002	-80.7237	-0.01814	202.9518	24.2523	648.2746	-47.3714	260.7796	23.7119	487.2159	-0.0592	0.0182	-0.0073	-0.0462	0.0165	0.9585
7.614	1.2015	274.9417	6.33	-105.9482	-5.6297	266.8888	26.5901	618.9843	-45.1439	248.3119	21.1371	463.9391	-0.0592	0.0182	-0.0073	-0.0462	0.0165	0.9585
7.626	-11.5996	341.3623	8.027	-131.5296	-12.1321	331.6214	28.689	582.7754	-41.9325	233.1492	18.014	435.8631	-0.0592	0.0182	-0.0073	-0.0462	0.0165	0.9585
7.638	-23.4752	402.3313	10.9573	-154.935	-19.4205	390.5425	30.4516	539.625	-37.7285	215.3484	14.3877	402.9221	-0.0592	0.0182	-0.0073	-0.0462	0.0165	0.9585
7.65	-33.1286	454.0445	14.8029	-174.7078	-26.6703	439.7593	31.7446	490.3343	-32.6989	195.2625	10.4188	365.677	-0.0592	0.0182	-0.0073	-0.0462	0.0165	0.9585
7.662	-39.8797	495.8307	19.1267	-190.6176	-33.1926	478.5538	32.4006	436.2944	-27.2764	173.448	6.4576	325.1029	-0.0592	0.0182	-0.0073	-0.0462	0.0165	0.9585
7.674	-43.6543	529.0252	23.3586	-203.2291	-38.4147	508.2117	32.2343	379.2993	-21.9167	150.5941	2.8654	282.4973	-0.0592	0.0182	-0.0073	-0.0462	0.0165	0.9585
7.686	-44.7104	555.9771	27.2054	-213.4788	-42.1774	531.0347	31.068	321.3556	-16.9893	127.4659	-0.052142	239.3152	-0.0592	0.0182	-0.0073	-0.0462	0.0165	0.9585
7.698	-43.4965	579.3086	30.3824	-222.4013	-44.4152	549.6113	28.7465	264.5904	-12.7052	104.8756	-2.1046	197.1103	-0.0592	0.0182	-0.0073	-0.0462	0.0165	0.9585
7.71	-40.5981	601.4236	32.7685	-230.9314	-45.2711	566.3531	25.2902	211.0973	-9.1733	83.6235	-3.2212	157.4083	-0.0592	0.0182	-0.0073	-0.0462	0.0165	0.9585
7.722	-36.6492	624.0569	34.4348	-239.7209	-45.0781	583.0661	20.9302	162.7148	-6.422	64.4165	-3.4646	121.5311	-0.0592	0.0182	-0.0073	-0.0462	0.0165	0.9585
7.734	-32.2542	647.9534	35.5933	-249.025	-44.2783	600.628	16.0814	120.8158	-4.4287	47.7847	-2.9977	90.4516	-0.0592	0.0182	-0.0073	-0.0462	0.0165	0.9585
7.746	-27.9519	673.0127	36.6114	-258.7543	-43.4161	619.1017	11.2446	86.0811	-3.1101	33.9954	-2.0591	64.6414	-0.0592	0.0182	-0.0073	-0.0462	0.0165	0.9585
